<svg width="33" height="33" viewBox="0 0 33 33" fill="none" xmlns="http://www.w3.org/2000/svg">
<path fill-rule="evenodd" clip-rule="evenodd" d="M3.25031 1.38187C3.25031 1.17097 3.42854 1 3.6484 1H32.3115C32.5314 1 32.7096 1.17097 32.7096 1.38187V29.0039C32.7096 29.2148 32.5314 29.3858 32.3115 29.3858C32.0916 29.3858 31.9134 29.2148 31.9134 29.0039V1.76374H3.6484C3.42854 1.76374 3.25031 1.59277 3.25031 1.38187Z" fill="white" stroke="white" stroke-width="0.5" stroke-linecap="round" stroke-linejoin="round"/>
<path d="M0.392028 7.30444C0.188972 7.10139 0.188971 6.77215 0.392028 6.56909L2.9057 4.05542C3.10877 3.85257 3.43806 3.85243 3.64105 4.05542L6.15472 6.56909C6.3575 6.77209 6.3575 7.10144 6.15472 7.30444C5.95174 7.50743 5.62244 7.50729 5.41937 7.30444L3.79339 5.67944L3.7934 29.5623L2.75336 29.5623L2.75336 5.67847L1.12738 7.30444C0.924333 7.50749 0.595086 7.50747 0.392028 7.30444Z" fill="white" stroke="white" stroke-width="0.25"/>
<path d="M25.1262 26.5554C25.33 26.3527 25.6597 26.3527 25.8635 26.5554L28.3909 29.0691C28.5946 29.2722 28.5948 29.6014 28.3909 29.8044L25.8635 32.3181C25.6597 32.5205 25.3299 32.5206 25.1262 32.3181C24.9221 32.115 24.9221 31.7849 25.1262 31.5818L26.76 29.9568L2.7522 29.9568V28.9167L26.76 28.9167L25.1262 27.2908C24.9222 27.0877 24.9222 26.7585 25.1262 26.5554Z" fill="white" stroke="white" stroke-width="0.25"/>
<path fill-rule="evenodd" clip-rule="evenodd" d="M14.1624 1.11568C14.3167 1.26992 14.3167 1.51999 14.1624 1.67423L9.42295 6.41373C9.26871 6.56797 9.01864 6.56797 8.8644 6.41373C8.71016 6.25949 8.71016 6.00941 8.8644 5.85517L13.6039 1.11568C13.7581 0.96144 14.0082 0.96144 14.1624 1.11568Z" fill="white" stroke="white" stroke-width="0.5" stroke-linecap="round" stroke-linejoin="round"/>
<path fill-rule="evenodd" clip-rule="evenodd" d="M32.4623 19.9423C32.6165 20.0966 32.6165 20.3467 32.4623 20.5009L28.1177 24.8454C27.9635 24.9997 27.7134 24.9997 27.5592 24.8454C27.4049 24.6912 27.4049 24.4411 27.5592 24.2869L31.9037 19.9423C32.0579 19.7881 32.308 19.7881 32.4623 19.9423Z" fill="white" stroke="white" stroke-width="0.5" stroke-linecap="round" stroke-linejoin="round"/>
<path fill-rule="evenodd" clip-rule="evenodd" d="M20.0851 1.11391C20.2403 1.26716 20.2419 1.51723 20.0886 1.67245L9.81975 12.073C9.66649 12.2282 9.41642 12.2298 9.2612 12.0766C9.10598 11.9233 9.10439 11.6732 9.25765 11.518L19.5265 1.11746C19.6798 0.962245 19.9299 0.960652 20.0851 1.11391Z" fill="white" stroke="white" stroke-width="0.5" stroke-linecap="round" stroke-linejoin="round"/>
<path fill-rule="evenodd" clip-rule="evenodd" d="M32.5938 13.3591C32.7481 13.5133 32.7481 13.7634 32.5938 13.9176L22.5882 23.9232C22.434 24.0775 22.1839 24.0775 22.0297 23.9232C21.8754 23.769 21.8754 23.5189 22.0297 23.3647L32.0353 13.3591C32.1895 13.2048 32.4396 13.2048 32.5938 13.3591Z" fill="white" stroke="white" stroke-width="0.5" stroke-linecap="round" stroke-linejoin="round"/>
<path fill-rule="evenodd" clip-rule="evenodd" d="M26.4084 1.24953C26.5614 1.40501 26.5594 1.65508 26.4039 1.80807L9.94736 18.0013C9.79188 18.1543 9.54182 18.1523 9.38883 17.9968C9.23584 17.8414 9.23785 17.5913 9.39333 17.4383L25.8499 1.24503C26.0054 1.09204 26.2554 1.09405 26.4084 1.24953Z" fill="white" stroke="white" stroke-width="0.5" stroke-linecap="round" stroke-linejoin="round"/>
<path fill-rule="evenodd" clip-rule="evenodd" d="M32.5939 7.17183C32.7482 7.32607 32.7482 7.57615 32.5939 7.73039L16.0057 24.3186C15.8515 24.4728 15.6014 24.4728 15.4472 24.3186C15.2929 24.1644 15.2929 23.9143 15.4472 23.7601L32.0354 7.17183C32.1896 7.01759 32.4397 7.01759 32.5939 7.17183Z" fill="white" stroke="white" stroke-width="0.5" stroke-linecap="round" stroke-linejoin="round"/>
<path fill-rule="evenodd" clip-rule="evenodd" d="M32.3306 1.24727C32.4849 1.40151 32.4849 1.65159 32.3306 1.80583L9.68638 24.4501C9.53214 24.6043 9.28207 24.6043 9.12783 24.4501C8.97359 24.2958 8.97359 24.0458 9.12783 23.8915L31.7721 1.24727C31.9263 1.09303 32.1764 1.09303 32.3306 1.24727Z" fill="white" stroke="white" stroke-width="0.5" stroke-linecap="round" stroke-linejoin="round"/>
</svg>
