<svg width="34" height="29" viewBox="0 0 34 29" fill="none" xmlns="http://www.w3.org/2000/svg">
<path d="M22.4255 9.34436L17.58 7.89061C17.2163 7.78209 16.8424 7.74388 16.472 7.75741V7.74494H10.5827L0.139038 4.27441L0.170612 18.9493L3.16859 20.4479L4.94365 16.1084L7.53673 17.1459L8.20908 15.4655L9.18284 16.4393L8.27435 17.3481C7.9586 17.6638 7.77765 18.1005 7.77765 18.5474C7.77765 19.4617 8.50678 20.2051 9.41368 20.2373C9.44525 21.1235 10.1577 21.8359 11.0439 21.8674C11.0754 22.7537 11.7879 23.4661 12.6741 23.4976C12.7067 24.4045 13.4496 25.1337 14.3642 25.1337C14.8108 25.1337 15.2478 24.9527 15.5633 24.637L16.472 23.7285L16.8371 24.0936C17.1529 24.4093 17.5896 24.5903 18.0364 24.5903C18.951 24.5903 19.6942 23.8611 19.7263 22.9542C20.6125 22.9227 21.3249 22.2103 21.3565 21.324C22.2427 21.2925 22.9551 20.5801 22.9867 19.6939C23.8936 19.6612 24.623 18.9183 24.623 18.004C24.623 17.9268 24.6105 17.8506 24.6002 17.7739L25.38 16.9941L26.0101 18.255L29.4233 16.5481L31.486 20.4861L33.8607 18.9037V4.85894L22.4255 9.34436ZM2.60555 18.9515L1.25635 18.2767L1.22902 5.78176L7.18357 7.76086L2.60555 18.9515ZM6.93151 15.733L5.35465 15.1026L8.2173 8.1042L9.77506 8.62213L6.93151 15.733ZM8.86444 18.5474C8.86444 18.3868 8.92892 18.23 9.04248 18.1162L9.99794 17.161C10.1115 17.0474 10.2686 16.9827 10.4288 16.9827C10.7647 16.9827 11.038 17.2563 11.038 17.5919C11.038 17.7522 10.9733 17.9092 10.8597 18.0228L9.90454 18.9783C9.79098 19.0918 9.6339 19.1563 9.47364 19.1563C9.13774 19.1563 8.86444 18.883 8.86444 18.5474ZM10.4946 20.1776C10.4946 20.017 10.5591 19.8602 10.6727 19.7464L11.6281 18.7912C11.7417 18.6776 11.8988 18.6129 12.059 18.6129C12.3949 18.6129 12.6682 18.8865 12.6682 19.2221C12.6682 19.3824 12.6035 19.5394 12.4899 19.653L11.5347 20.6084C11.4212 20.722 11.2641 20.7865 11.1038 20.7865C10.7679 20.7865 10.4946 20.5132 10.4946 20.1776ZM12.1248 21.8077C12.1248 21.6472 12.1893 21.4904 12.3029 21.3766L13.2583 20.4214C13.3719 20.3078 13.529 20.2431 13.6892 20.2431C14.0251 20.2431 14.2984 20.5166 14.2984 20.8523C14.2984 21.0125 14.2337 21.1696 14.1201 21.2832L13.1649 22.2386C13.0514 22.3522 12.8943 22.4167 12.734 22.4167C12.3981 22.4167 12.1248 22.1434 12.1248 21.8077ZM15.7503 22.9134L14.7951 23.8688C14.6816 23.9824 14.5245 24.0469 14.3642 24.0469C14.0283 24.0469 13.755 23.7736 13.755 23.4379C13.755 23.2774 13.8195 23.1206 13.9331 23.0068L14.8885 22.0516C15.0021 21.938 15.1592 21.8733 15.3194 21.8733C15.6553 21.8733 15.9286 22.1468 15.9286 22.4825C15.9286 22.6427 15.8639 22.7998 15.7503 22.9134ZM22.927 18.6129C22.7667 18.6129 22.6096 18.5484 22.4961 18.4349L17.943 13.8815L17.1746 14.6499L21.7277 19.203C21.8412 19.3168 21.906 19.4736 21.906 19.6342C21.906 19.9698 21.6327 20.2431 21.2968 20.2431C21.1365 20.2431 20.9795 20.1786 20.8659 20.0651L16.3128 15.5117L15.5444 16.2801L20.0975 20.8332C20.2111 20.947 20.2758 21.1038 20.2758 21.2643C20.2758 21.6 20.0025 21.8733 19.6666 21.8733C19.5063 21.8733 19.3493 21.8088 19.2357 21.6952L14.6826 17.1419L13.9142 17.9103L18.4673 22.4634C18.5809 22.5772 18.6456 22.734 18.6456 22.8945C18.6456 23.2302 18.3723 23.5035 18.0364 23.5035C17.8761 23.5035 17.7191 23.439 17.6055 23.3254L16.9926 22.7123C17.0035 22.6364 17.0154 22.5602 17.0154 22.4825C17.0154 21.5679 16.286 20.8247 15.3791 20.7926C15.3475 19.9064 14.6351 19.194 13.7489 19.1624C13.7173 18.2762 13.0049 17.5638 12.1187 17.5322C12.0861 16.6253 11.3434 15.8959 10.4288 15.8959C10.3516 15.8959 10.2755 15.9084 10.1991 15.9187L8.64767 14.3673L10.8624 8.83174H14.0734L12.0781 10.8273C11.7573 11.1473 11.5814 11.5734 11.5814 12.0266C11.5814 12.9616 12.3421 13.7223 13.2774 13.7223C13.724 13.7223 14.161 13.5414 14.4765 13.2256L15.9161 11.7857C16.2107 11.4922 16.7294 11.4808 17.0361 11.7618L18.3065 12.9263C18.7287 13.3132 19.1978 13.635 19.6998 13.8871L23.3579 17.5728C23.4714 17.6866 23.5362 17.8434 23.5362 18.004C23.5362 18.3396 23.2629 18.6129 22.927 18.6129ZM24.0796 16.7577L21.846 14.5072C22.0456 14.526 22.2467 14.5374 22.4494 14.5374V13.4506C21.1843 13.4506 19.9736 12.9797 19.0412 12.1248L17.7705 10.9608C17.0534 10.3022 15.8368 10.3285 15.1483 11.0178L13.7089 12.4575C13.5948 12.5705 13.4377 12.6355 13.2774 12.6355C12.9415 12.6355 12.6682 12.3622 12.6682 12.0266C12.6682 11.8634 12.7311 11.7108 12.8463 11.5954L14.9177 9.52425C15.5264 8.91558 16.4404 8.68395 17.2675 8.93177L22.0678 10.3717L24.8668 15.9705L24.0796 16.7577ZM26.4959 16.797L23.2013 10.2072L25.6076 9.26317L28.9189 15.5852L26.4959 16.797ZM32.7739 18.3224L31.888 18.913L26.6254 8.86437L32.7739 6.45278V18.3224Z" fill="#E3B873"/>
<circle cx="19.6661" cy="1.48559" r="0.485591" fill="#E3B873"/>
<circle cx="7.4093" cy="24.4148" r="0.485591" fill="#E3B873"/>
<circle cx="9.4674" cy="26.1033" r="0.485591" fill="#E3B873"/>
<circle cx="11.816" cy="27.342" r="0.485591" fill="#E3B873"/>
<circle cx="14.3649" cy="28.1345" r="0.485591" fill="#E3B873"/>
<circle cx="22.2135" cy="2.25854" r="0.485591" fill="#E3B873"/>
<circle cx="24.5626" cy="3.51294" r="0.485591" fill="#E3B873"/>
<path d="M26.8299 2.81104V5.61273H23.9965" stroke="#E3B873" stroke-linecap="round" stroke-linejoin="round"/>
<path d="M5.00978 24.0981L5.00978 21.8313L7.2738 21.8313" stroke="#E3B873" stroke-linecap="round" stroke-linejoin="round"/>
<path d="M7.80017 4.79405C9.33529 3.45823 10.3118 2.84367 12.1513 2.12542C14.1027 1.36348 15.423 1.18456 17.5435 1.18457" stroke="#E3B873" stroke-linecap="round"/>
<path d="M28.404 22.2825C27.2627 24.0627 25.137 25.8009 23.4083 26.7554C21.5744 27.7679 19.6096 28.3384 16.9925 28.4748" stroke="#E3B873" stroke-linecap="round"/>
</svg>
