<svg width="41" height="35" viewBox="0 0 41 35" fill="none" xmlns="http://www.w3.org/2000/svg">
<path d="M20.8394 24.7207C21.2176 24.7207 21.5269 25.0198 21.5269 25.3916V26.7158C21.5269 27.0876 21.2176 27.3867 20.8394 27.3867C20.4613 27.3866 20.1528 27.0875 20.1528 26.7158V25.3916C20.1528 25.0199 20.4613 24.7208 20.8394 24.7207Z" fill="white" stroke="white" stroke-width="0.1"/>
<path d="M24.334 0.880371C24.3961 0.889102 25.7225 1.08366 27.0391 2.09229C28.3932 3.12974 29.0822 4.50815 29.4111 5.84424C31.4209 6.65183 33.2233 7.93249 34.6318 9.56006C36.0948 11.2507 37.1064 13.285 37.5576 15.4429L37.5586 15.4468H39.1836L39.3193 15.4526C39.6327 15.4826 39.9236 15.6163 40.1494 15.8364C40.4076 16.0881 40.5497 16.4233 40.5498 16.7798V22.0796C40.5498 22.8161 39.9359 23.4126 39.1836 23.4126H36.6953C35.0318 27.1192 31.6731 29.9754 27.4971 30.9771L27.1768 32.4341C26.9757 33.3489 26.1341 34.0111 25.1768 34.0112H22.1982C21.0716 34.011 20.1525 33.1176 20.1523 32.0161V31.3618H14.0459C13.3649 31.3618 12.6847 31.3102 12.0146 31.2124V32.0161C12.0144 33.1177 11.0955 34.0112 9.96875 34.0112H7.25781C6.59428 34.0111 5.97015 33.6974 5.58887 33.1704C4.38358 31.5048 0.45021 25.4945 0.450195 18.105C0.450195 14.8072 1.69955 11.6461 3.96875 9.20459C6.11921 6.89113 9.01513 5.40087 12.1631 4.9751C12.7094 2.99584 14.5654 1.53564 16.7637 1.53564C18.9143 1.53578 20.7349 2.93418 21.3242 4.84814H23.5498V1.54443C23.5498 1.3494 23.6365 1.16395 23.7871 1.03662C23.9376 0.909424 24.1377 0.853086 24.334 0.880371ZM24.9238 7.50635C24.9237 7.87803 24.6144 8.17725 24.2363 8.17725C23.8584 8.17704 23.55 7.8779 23.5498 7.50635V6.18994H21.5264C21.5255 6.63481 21.457 7.07483 21.3291 7.49756H21.5195C21.8975 7.49776 22.206 7.79682 22.2061 8.16846C22.2061 8.54013 21.8976 8.83915 21.5195 8.83936H12.0078C11.6296 8.83936 11.3203 8.54026 11.3203 8.16846C11.3204 7.7967 11.6296 7.49756 12.0078 7.49756H12.1963C12.0846 7.1279 12.0199 6.74479 12.0049 6.35693C9.30998 6.79893 6.84025 8.11228 4.98633 10.1069C2.94686 12.3011 1.82422 15.1416 1.82422 18.105C1.82426 25.0967 5.56403 30.8108 6.71094 32.396C6.83643 32.5695 7.03532 32.6693 7.25781 32.6694H9.96875C10.3403 32.6694 10.6404 32.3752 10.6406 32.0161V25.3911C10.6409 25.0195 10.9501 24.7202 11.3281 24.7202C11.7061 24.7203 12.0144 25.0196 12.0146 25.3911V29.854C12.683 29.9628 13.364 30.02 14.0459 30.02H20.1523V29.3657C20.1525 28.994 20.4617 28.6948 20.8398 28.6948C21.2179 28.6949 21.5262 28.9941 21.5264 29.3657V32.0161C21.5266 32.3751 21.8268 32.6693 22.1982 32.6694H25.1768C25.4919 32.6693 25.7672 32.4511 25.833 32.1528L27.3506 25.2505C27.4306 24.8876 27.7966 24.6584 28.166 24.7358C28.5359 24.8133 28.7733 25.1692 28.6934 25.5327L27.8213 29.4976C32.6855 28.0474 36.174 23.7554 36.4414 18.7329C36.4611 18.3617 36.7856 18.0786 37.1631 18.0972C37.5408 18.1163 37.8333 18.431 37.8135 18.8022C37.7534 19.9316 37.5457 21.0272 37.21 22.0708H39.1758V16.7886H37.5488C36.905 16.7887 36.3425 16.3363 36.2119 15.7114C35.8067 13.7738 34.8977 11.9466 33.583 10.4272C32.4977 9.17309 31.1518 8.14822 29.6523 7.42334C29.6703 7.68106 29.6797 7.93069 29.6797 8.16846C29.6797 8.54026 29.3704 8.83936 28.9922 8.83936C28.6142 8.83915 28.3057 8.54013 28.3057 8.16846C28.3056 6.1823 27.7408 4.85286 27.0293 3.96533C26.3436 3.1101 25.5184 2.66237 24.9238 2.43311V7.50635ZM16.7637 2.87744C14.8936 2.87744 13.3742 4.36087 13.374 6.18115C13.374 6.63603 13.4721 7.08424 13.6562 7.49756L19.8701 7.49756C20.0544 7.08437 20.1523 6.63605 20.1523 6.18115C20.1522 4.36107 18.6335 2.87765 16.7637 2.87744Z" fill="white" stroke="white" stroke-width="0.1"/>
<path d="M31.0625 14.1221C32.2436 14.1222 33.3097 14.8282 33.7129 15.8828C33.8461 16.2311 33.6636 16.618 33.3086 16.7471C33.2299 16.7757 33.1489 16.789 33.0693 16.7891C32.7916 16.7891 32.5292 16.623 32.4258 16.3525C32.2234 15.8231 31.6764 15.4641 31.0625 15.4639C30.4484 15.4639 29.9008 15.823 29.6982 16.3525C29.5654 16.7001 29.1699 16.876 28.8154 16.7471C28.4604 16.618 28.2779 16.2311 28.4111 15.8828C28.8146 14.828 29.8812 14.1221 31.0625 14.1221Z" fill="white" stroke="white" stroke-width="0.1"/>
<path d="M16.7634 12.4658C17.1415 12.4659 17.45 12.765 17.45 13.1367V13.1631C18.4126 13.2609 19.2543 13.5616 19.8591 13.998C20.4732 14.4412 20.8473 15.0272 20.8474 15.6826C20.8474 16.0544 20.5381 16.3535 20.1599 16.3535C19.7819 16.3533 19.4734 16.0543 19.4734 15.6826C19.4733 15.4543 19.2758 15.1981 18.905 14.9766C18.5487 14.7638 18.0449 14.5918 17.45 14.5146V17.5928C18.2199 17.8051 19.0602 18.0758 19.7117 18.5176C20.3757 18.9679 20.8473 19.599 20.8474 20.5264C20.8474 21.1819 20.4734 21.7687 19.8591 22.2119C19.2543 22.6483 18.4125 22.9481 17.45 23.0459V23.0732C17.4498 23.4449 17.1415 23.744 16.7634 23.7441C16.3853 23.7441 16.0761 23.4449 16.0759 23.0732V23.0459C15.1137 22.9481 14.2724 22.6481 13.6677 22.2119C13.0534 21.7687 12.6794 21.182 12.6794 20.5264C12.6797 20.1548 12.988 19.8556 13.366 19.8555C13.744 19.8555 14.0532 20.1548 14.0535 20.5264C14.0535 20.7548 14.2507 21.0117 14.6218 21.2334C14.978 21.4461 15.4814 21.6162 16.0759 21.6934V18.6152C15.3062 18.403 14.4664 18.133 13.8152 17.6914C13.1511 17.241 12.6794 16.6101 12.6794 15.6826C12.6795 15.0271 13.0535 14.4412 13.6677 13.998C14.2725 13.5617 15.1136 13.2609 16.0759 13.1631V13.1367C16.0759 12.7649 16.3852 12.4658 16.7634 12.4658ZM17.45 21.6934C18.0448 21.6162 18.5487 21.4462 18.905 21.2334C19.276 21.0118 19.4734 20.7548 19.4734 20.5264C19.4733 20.2046 19.3437 19.9399 19.0203 19.6943C18.7021 19.4529 18.1977 19.2323 17.45 19V21.6934ZM16.0759 14.5146C15.4812 14.5918 14.978 14.7638 14.6218 14.9766C14.2508 15.1981 14.0536 15.4542 14.0535 15.6826C14.0535 16.0047 14.1827 16.2699 14.5066 16.5156C14.8246 16.7569 15.3288 16.9758 16.0759 17.208V14.5146Z" fill="white" stroke="white" stroke-width="0.1"/>
</svg>
